<?xml version="1.0" encoding="UTF-8"?>
<svg id="uuid-9506de63-8535-4b6e-b0f4-525c7ecd859c" data-name="Capa 2" xmlns="http://www.w3.org/2000/svg" viewBox="0 0 730.95 199.73">
  <g id="uuid-f033f6cd-1694-458c-8413-38a3b0ef9589" data-name="Capa 1">
    <g>
      <path d="M88.63,38.55c0,8.57-2.76,16.3-8.28,23.19-5.52,6.9-13.47,11.4-23.85,13.5,13.28,1.96,23.92,6.57,31.9,13.83,7.98,7.26,11.98,16.59,11.98,27.98,0,14.16-5.21,24.9-15.63,32.23-10.42,7.33-24.66,11-42.74,11-8.2,0-16.53-.38-24.99-1.14-8.46-.76-14.14-1.14-17.04-1.14V2.29c2.9,0,8.58-.38,17.04-1.14,8.46-.76,16.79-1.14,24.99-1.14,15.46,0,27.09,3.61,34.9,10.83,7.8,7.22,11.71,16.46,11.71,27.71ZM38.44,3.16c-5.88,0-13.17.44-21.89,1.31v69.47h22.97c5.81,0,10.87-.98,15.19-2.94,4.32-1.96,7.71-4.66,10.18-8.11,2.47-3.45,4.28-7.19,5.44-11.21,1.16-4.03,1.74-8.4,1.74-13.12s-.65-9.04-1.96-13.17-3.27-7.89-5.88-11.27c-2.61-3.38-6.13-6.04-10.56-8-4.43-1.96-9.51-2.94-15.24-2.94ZM16.55,155.82c9.44.94,16.73,1.42,21.89,1.42,15.1,0,26.44-3.54,34.03-10.62,7.58-7.08,11.38-16.93,11.38-29.56s-3.69-22.23-11.05-29.24c-7.37-7-18.42-10.62-33.16-10.83h-23.08v78.83Z" style="fill: #f7f7f7;"/>
      <path d="M152.99,11.05C164.67,3.9,177.41.33,191.2.33s26.53,3.58,38.22,10.73c11.69,7.15,20.94,16.86,27.77,29.13,6.82,12.27,10.24,25.66,10.24,40.18,0,10.89-2.01,21.27-6.04,31.14-4.03,9.87-9.46,18.38-16.28,25.53-6.82,7.15-14.94,12.85-24.34,17.1-9.4,4.25-19.26,6.37-29.56,6.37s-20.16-2.12-29.56-6.37c-9.4-4.25-17.5-9.94-24.28-17.1-6.79-7.15-12.2-15.66-16.22-25.53-4.03-9.87-6.04-20.25-6.04-31.14,0-14.52,3.39-27.91,10.18-40.18,6.79-12.27,16.02-21.98,27.71-29.13ZM169.81,150.32c9.91,5.7,20.23,7.86,30.98,6.48,10.74-1.38,20.22-6.04,28.42-13.99,8.2-7.95,14.21-18.11,18.02-30.49,3.81-12.38,4.85-25.5,3.1-39.36-1.31-10.38-4.12-20.09-8.44-29.13-4.32-9.04-9.55-16.62-15.68-22.76-6.13-6.13-13.08-10.76-20.85-13.88-7.77-3.12-15.68-4.17-23.74-3.16-10.74,1.38-20.22,6.03-28.42,13.94-8.2,7.91-14.21,18.06-18.02,30.43-3.81,12.38-4.85,25.5-3.1,39.36,1.74,13.87,5.99,26.33,12.74,37.4,6.75,11.07,15.08,19.46,24.99,25.15Z" style="fill: #f7f7f7;"/>
      <path d="M383.5,2.29h3.05v155.71h-3.05L292.58,26.35v131.64h-3.16V2.29h3.16l90.92,131.75V2.29Z" style="fill: #f7f7f7;"/>
      <path d="M501.75,154.95v3.05h-86.13V2.4h79.27v3.05h-62.72v92.55h.11c3.05-8.64,8.24-16.59,15.57-23.85,9.51-9.36,22.03-14.05,37.57-14.05v3.05c-14.01,0-25.7,4.39-35.06,13.17-12.12,11.47-18.18,25.08-18.18,40.83v37.78h69.58Z" style="fill: #f7f7f7;"/>
      <path d="M617.71,2.29v3.16h-48.89v152.55h-16.55V5.44h-49v-3.16h114.44Z" style="fill: #f7f7f7;"/>
      <path d="M730.95,2.29v3.16h-48.89v152.55h-16.55V5.44h-49v-3.16h114.44Z" style="fill: #f7f7f7;"/>
    </g>
    <text/>
    <g>
      <path d="M218.13,199.15c.41,0,.8-.05,1.15-.15.36-.1.66-.23.92-.38.25-.15.5-.35.75-.59.24-.24.44-.47.59-.68.15-.21.32-.46.51-.76l.16.09c-.15.27-.31.53-.48.78-.17.25-.4.52-.68.8-.28.29-.58.53-.89.74-.32.21-.69.38-1.12.52-.44.14-.89.21-1.36.21-.79,0-1.52-.13-2.2-.39-.68-.26-1.28-.63-1.79-1.11-.51-.48-.91-1.09-1.2-1.82-.29-.73-.44-1.54-.44-2.43,0-.68.11-1.33.32-1.95.21-.61.5-1.15.87-1.61.37-.46.79-.85,1.26-1.18.47-.33.98-.58,1.51-.75.53-.17,1.07-.25,1.61-.25.99,0,1.88.25,2.66.74.78.5,1.36,1.09,1.75,1.79l-.98.44c-.03-.15-.1-.34-.22-.56-.12-.22-.29-.46-.52-.72-.22-.25-.48-.49-.75-.71-.28-.22-.61-.4-.99-.54-.38-.15-.77-.22-1.18-.22-.34,0-.68.05-1.02.14-.34.1-.66.24-.97.43s-.6.43-.87.73-.5.63-.7,1.01c-.2.38-.35.81-.46,1.31-.11.5-.17,1.04-.17,1.61,0,.84.13,1.61.39,2.3.26.7.62,1.27,1.07,1.73.45.46.97.81,1.56,1.06s1.23.38,1.9.38Z" style="fill: #f7f7f7;"/>
      <path d="M238.8,188.38h1.19v11.17h-1.19v-5.59h-4.41v5.59h-1.19v-11.17h1.19v5.37h4.41v-5.37Z" style="fill: #f7f7f7;"/>
      <path d="M253.88,189.01c.84-.51,1.75-.77,2.74-.77s1.9.26,2.74.77c.84.51,1.5,1.21,1.99,2.09.49.88.73,1.84.73,2.88,0,.78-.14,1.53-.43,2.23-.29.71-.68,1.32-1.17,1.83-.49.51-1.07.92-1.75,1.23-.67.3-1.38.46-2.12.46s-1.45-.15-2.12-.46c-.67-.3-1.26-.71-1.74-1.23-.49-.51-.88-1.12-1.16-1.83-.29-.71-.43-1.45-.43-2.23,0-1.04.24-2,.73-2.88.49-.88,1.15-1.58,1.99-2.09ZM255.09,199c.71.41,1.45.56,2.22.46.77-.1,1.45-.43,2.04-1,.59-.57,1.02-1.3,1.29-2.19.27-.89.35-1.83.22-2.82-.09-.74-.3-1.44-.61-2.09-.31-.65-.69-1.19-1.12-1.63-.44-.44-.94-.77-1.5-1-.56-.22-1.12-.3-1.7-.23-.77.1-1.45.43-2.04,1-.59.57-1.02,1.3-1.29,2.18-.27.89-.35,1.83-.22,2.82.12,1,.43,1.89.91,2.68.48.79,1.08,1.4,1.79,1.8Z" style="fill: #f7f7f7;"/>
      <path d="M276,188.38l3.77,11.17h-1.2c-.54-1.56-1.13-3.31-1.77-5.25h-2.81c-.07.2-.65,1.95-1.76,5.25h-.23l3.77-11.17h.22ZM274.06,194.08h2.66c-.08-.24-.52-1.56-1.34-3.96-.19.56-.64,1.88-1.33,3.96Z" style="fill: #f7f7f7;"/>
      <path d="M295.81,199.15c.41,0,.8-.05,1.15-.15.36-.1.66-.23.92-.38.25-.15.5-.35.75-.59.24-.24.44-.47.59-.68.15-.21.32-.46.51-.76l.16.09c-.15.27-.31.53-.48.78-.17.25-.4.52-.68.8-.28.29-.58.53-.89.74-.32.21-.69.38-1.12.52-.44.14-.89.21-1.36.21-.79,0-1.52-.13-2.2-.39-.68-.26-1.28-.63-1.79-1.11-.51-.48-.91-1.09-1.2-1.82-.29-.73-.44-1.54-.44-2.43,0-.68.11-1.33.32-1.95.21-.61.5-1.15.87-1.61.37-.46.79-.85,1.26-1.18.47-.33.98-.58,1.51-.75.53-.17,1.07-.25,1.61-.25.99,0,1.88.25,2.66.74.78.5,1.36,1.09,1.75,1.79l-.98.44c-.03-.15-.1-.34-.22-.56-.12-.22-.29-.46-.52-.72-.22-.25-.48-.49-.75-.71-.28-.22-.61-.4-.99-.54-.38-.15-.77-.22-1.18-.22-.34,0-.68.05-1.02.14-.34.1-.66.24-.97.43s-.6.43-.87.73-.5.63-.7,1.01c-.2.38-.35.81-.46,1.31-.11.5-.17,1.04-.17,1.61,0,.84.13,1.61.39,2.3.26.7.62,1.27,1.07,1.73.45.46.97.81,1.56,1.06s1.23.38,1.9.38Z" style="fill: #f7f7f7;"/>
      <path d="M316.47,188.38h1.19v11.17h-1.19v-5.59h-4.41v5.59h-1.19v-11.17h1.19v5.37h4.41v-5.37Z" style="fill: #f7f7f7;"/>
      <path d="M330.53,199.55h-1.19v-11.17h1.19v11.17ZM331.37,185.65l-1.55,2.03h-.23l.76-2.03h1.02Z" style="fill: #f7f7f7;"/>
      <path d="M359.67,194.37h-3.74v-.81h3.74v.81Z" style="fill: #f7f7f7;"/>
      <path d="M394.49,194.09v5.46h-.12c0-.33-.08-.62-.25-.88-.17-.25-.42-.39-.75-.41-.93.97-1.99,1.46-3.18,1.46-.79,0-1.52-.13-2.2-.39-.68-.26-1.28-.63-1.79-1.11-.51-.48-.91-1.09-1.2-1.82-.29-.73-.44-1.54-.44-2.43,0-.68.11-1.33.32-1.95.21-.61.5-1.15.87-1.61.37-.46.79-.85,1.26-1.18.47-.33.98-.58,1.51-.75.53-.17,1.07-.25,1.61-.25.99,0,1.88.25,2.66.74.78.5,1.36,1.09,1.75,1.79l-.98.44c-.03-.15-.1-.34-.22-.56-.12-.22-.29-.46-.52-.72-.22-.25-.48-.49-.75-.71-.28-.22-.61-.4-.99-.54-.38-.15-.77-.22-1.18-.22-.34,0-.68.05-1.02.14-.34.1-.66.24-.97.43s-.6.43-.87.73-.5.63-.7,1.01c-.2.38-.35.81-.46,1.31-.11.5-.17,1.04-.17,1.61,0,.84.13,1.61.39,2.3.26.7.62,1.27,1.07,1.73.45.46.97.81,1.56,1.06s1.23.38,1.9.38c1.04,0,1.92-.32,2.65-.96v-4.09h1.19Z" style="fill: #f7f7f7;"/>
      <path d="M409.02,188.38l3.77,11.17h-1.2c-.54-1.56-1.13-3.31-1.77-5.25h-2.81c-.07.2-.65,1.95-1.76,5.25h-.23l3.77-11.17h.22ZM407.08,194.08h2.66c-.08-.24-.52-1.56-1.34-3.96-.19.56-.64,1.88-1.33,3.96Z" style="fill: #f7f7f7;"/>
      <path d="M431.01,188.38h.23l2.02,11.17h-1.19c-.13-.75-.32-1.85-.58-3.3-.26-1.45-.48-2.72-.66-3.8-.19-1.08-.29-1.67-.3-1.75l-2.71,8.75c-.03.07-.07.11-.14.11-.07,0-.12-.03-.15-.1l-2.8-8.78-1.61,8.88h-.22l2.02-11.17h.22l2.99,9.33,2.88-9.33Z" style="fill: #f7f7f7;"/>
      <path d="M447.3,188.22c1.24,0,2.22.29,2.93.87.71.58,1.06,1.34,1.06,2.29s-.36,1.68-1.07,2.27c-.71.59-1.69.88-2.92.88h-1.83v5.03h-1.19v-11.17c.21,0,.62-.03,1.22-.08.61-.05,1.2-.08,1.79-.08ZM447.04,194.3c.54,0,1.01-.08,1.41-.24.41-.16.73-.38.96-.66.23-.28.41-.59.52-.93.11-.34.17-.71.17-1.1s-.06-.77-.17-1.11c-.11-.34-.29-.65-.52-.93-.23-.28-.55-.49-.96-.65-.41-.16-.88-.24-1.41-.24-.42,0-.94.03-1.56.09v5.77h1.56Z" style="fill: #f7f7f7;"/>
      <path d="M463.47,199.33h3.8v.22h-4.98v-11.17h1.19v10.95Z" style="fill: #f7f7f7;"/>
      <path d="M477.88,188.38h1.19v11.17h-1.19v-11.17Z" style="fill: #f7f7f7;"/>
      <path d="M497.51,188.38h.22v11.17h-.22l-6.52-9.45v9.45h-.23v-11.17h.23l6.52,9.45v-9.45Z" style="fill: #f7f7f7;"/>
      <path d="M518.84,194.09v5.46h-.12c0-.33-.08-.62-.25-.88-.17-.25-.42-.39-.75-.41-.93.97-1.99,1.46-3.18,1.46-.79,0-1.52-.13-2.2-.39-.68-.26-1.28-.63-1.79-1.11-.51-.48-.91-1.09-1.2-1.82-.29-.73-.44-1.54-.44-2.43,0-.68.11-1.33.32-1.95.21-.61.5-1.15.87-1.61.37-.46.79-.85,1.26-1.18.47-.33.98-.58,1.51-.75.53-.17,1.07-.25,1.61-.25.99,0,1.88.25,2.66.74.78.5,1.36,1.09,1.75,1.79l-.98.44c-.03-.15-.1-.34-.22-.56-.12-.22-.29-.46-.52-.72-.22-.25-.48-.49-.75-.71-.28-.22-.61-.4-.99-.54-.38-.15-.77-.22-1.18-.22-.34,0-.68.05-1.02.14-.34.1-.66.24-.97.43s-.6.43-.87.73-.5.63-.7,1.01c-.2.38-.35.81-.46,1.31-.11.5-.17,1.04-.17,1.61,0,.84.13,1.61.39,2.3.26.7.62,1.27,1.07,1.73.45.46.97.81,1.56,1.06s1.23.38,1.9.38c1.04,0,1.92-.32,2.65-.96v-4.09h1.19Z" style="fill: #f7f7f7;"/>
    </g>
  </g>
</svg>