<?xml version="1.0" encoding="UTF-8"?>
<svg id="uuid-bbbbef6a-48ec-4f76-97d2-5de46a8497f6" data-name="Capa 2" xmlns="http://www.w3.org/2000/svg" viewBox="0 0 106.1 70.44">
  <g id="uuid-a602b340-97ea-4151-a0a3-dcf045703d8c" data-name="Capa 1">
    <g>
      <path d="M29.26,14.85c0,5.4-4.77,5.44-4.77,5.44,4.31,0,4.35,5.44,4.35,5.44,0-5.4,4.77-5.44,4.77-5.44-4.31,0-4.35-5.44-4.35-5.44Z" style="fill: #f7f7f7;"/>
      <path d="M83.22,24.98c0,4.43-3.91,4.46-3.91,4.46,3.53,0,3.57,4.46,3.57,4.46,0-4.43,3.91-4.46,3.91-4.46-3.53,0-3.57-4.46-3.57-4.46Z" style="fill: #f7f7f7;"/>
      <path d="M55.08,21.1c-4.7-1.8-7.04-7.06-5.24-11.76.66-1.72,1.78-3.12,3.17-4.12-2.9.63-5.43,2.66-6.57,5.64-1.8,4.7.55,9.96,5.24,11.76,2.98,1.14,6.18.61,8.59-1.12-1.67.36-3.47.26-5.19-.4Z" style="fill: #f7f7f7;"/>
      <path d="M106.1,70.2H0v-18.3c0-7.01,1.37-13.8,4.08-20.2,2.61-6.18,6.36-11.73,11.12-16.5,4.77-4.77,10.32-8.51,16.5-11.12C38.1,1.37,44.89,0,51.9,0h2.3c7.01,0,13.8,1.37,20.2,4.08,6.18,2.61,11.73,6.36,16.5,11.12,4.77,4.77,8.51,10.32,11.12,16.5,2.71,6.4,4.08,13.2,4.08,20.2v18.3ZM2.07,68.13h101.95v-16.23c0-27.47-22.35-49.82-49.82-49.82h-2.3C24.43,2.07,2.07,24.43,2.07,51.9v16.23Z" style="fill: #f7f7f7;"/>
      <path d="M25.15,70.2h63.44l-.35-1.31c-.02-.06-1.76-6.48-4.15-13.41-3.24-9.44-6.09-15.33-8.46-17.51-2.1-1.93-5.98-4-10.67-5.69-4.46-1.61-8.84-2.57-11.74-2.57-.03,0-.06,0-.09,0-2.87.02-7.24,1.03-11.71,2.7-4.62,1.73-8.46,3.82-10.55,5.75-2.36,2.18-5.27,8.03-8.63,17.4-2.48,6.89-4.32,13.26-4.33,13.32l-.38,1.32h7.15l.29.23.19-.23ZM53.08,33.14l12.46,17.07-.09.13-12.44,16.96-12.09-16.89,12.16-17.28ZM66.53,52.4l14.15,15.73h-25.26l11.11-15.73ZM50.78,68.13h-23.97l12.77-15.96,11.21,15.96ZM82.12,56.14c1.73,5.02,3.11,9.77,3.74,11.98h-2.39l-15.7-17.45.34-.46-.02-.03,6.93-9.8c1.52,1.95,3.84,6.28,7.1,15.76ZM73.52,38.91l-6.72,9.51-12.08-16.56c2.59.25,6.01,1.09,9.53,2.36,3.88,1.4,7.26,3.11,9.27,4.68ZM42.14,34.36c3.41-1.28,6.73-2.15,9.27-2.45l-11.78,16.73-6.68-9.52c2.01-1.58,5.35-3.32,9.19-4.76ZM24.19,56.25c3.38-9.39,5.73-13.71,7.26-15.66l6.88,9.8-14.18,17.73h-3.87c.67-2.21,2.12-6.91,3.9-11.88Z" style="fill: #f7f7f7;"/>
    </g>
  </g>
</svg>